<svg width="51" height="71" viewBox="0 0 51 71" fill="none" xmlns="http://www.w3.org/2000/svg">
<g filter="url(#filter0_d_739_6229)">
<path d="M0 11C0 4.92487 4.92487 0 11 0L40 0C46.0751 0 51 4.92487 51 11L51 34.2376C51 38.5247 47.5247 42 43.2376 42C40.1991 42 37.44 43.7728 36.1773 46.5365L35.13 48.8286C31.2545 57.3108 19.1436 57.1358 15.5148 48.5452L14.7282 46.6831C13.5292 43.8447 10.7474 42 7.66621 42C3.43228 42 0 38.5677 0 34.3338L0 11Z" fill="#FB6A02"/>
</g>
<path fill-rule="evenodd" clip-rule="evenodd" d="M26 13C22.2288 13 20.3431 13 19.1716 14.1716C18.1085 15.2347 18.01 16.8857 18.0009 20H17C16.4477 20 16 20.4477 16 21V22C16 22.3148 16.1482 22.6111 16.4 22.8L18 24C18.0091 27.1143 18.1085 28.7653 19.1716 29.8284C19.4138 30.0706 19.6864 30.2627 20 30.4151V31.9999C20 32.5522 20.4477 32.9999 21 32.9999H22.5C23.0523 32.9999 23.5 32.5522 23.5 31.9999V30.9815C24.2271 31 25.0542 31 26 31C26.9458 31 27.7729 31 28.5 30.9815V31.9999C28.5 32.5522 28.9477 32.9999 29.5 32.9999H31C31.5523 32.9999 32 32.5522 32 31.9999V30.4151C32.3136 30.2627 32.5862 30.0706 32.8284 29.8284C33.8915 28.7653 33.9909 27.1143 34 24L35.6 22.8C35.8518 22.6111 36 22.3148 36 22V21C36 20.4477 35.5523 20 35 20H33.9991C33.99 16.8857 33.8915 15.2347 32.8284 14.1716C31.6569 13 29.7712 13 26 13ZM19.5 20.5C19.5 21.9142 19.5 22.6213 19.9393 23.0607C20.3787 23.5 21.0858 23.5 22.5 23.5H26H29.5C30.9142 23.5 31.6213 23.5 32.0607 23.0607C32.5 22.6213 32.5 21.9142 32.5 20.5V18C32.5 16.5858 32.5 15.8787 32.0607 15.4393C31.6213 15 30.9142 15 29.5 15H26H22.5C21.0858 15 20.3787 15 19.9393 15.4393C19.5 15.8787 19.5 16.5858 19.5 18V20.5ZM20.25 27C20.25 26.5858 20.5858 26.25 21 26.25H22.5C22.9142 26.25 23.25 26.5858 23.25 27C23.25 27.4142 22.9142 27.75 22.5 27.75H21C20.5858 27.75 20.25 27.4142 20.25 27ZM31.75 27C31.75 26.5858 31.4142 26.25 31 26.25H29.5C29.0858 26.25 28.75 26.5858 28.75 27C28.75 27.4142 29.0858 27.75 29.5 27.75H31C31.4142 27.75 31.75 27.4142 31.75 27Z" fill="white"/>
<defs>
<filter id="filter0_d_739_6229" x="0" y="0" width="51" height="57.0903" filterUnits="userSpaceOnUse" color-interpolation-filters="sRGB">
<feFlood flood-opacity="0" result="BackgroundImageFix"/>
<feColorMatrix in="SourceAlpha" type="matrix" values="0 0 0 0 0 0 0 0 0 0 0 0 0 0 0 0 0 0 127 0" result="hardAlpha"/>
<feOffset dy="2"/>
<feComposite in2="hardAlpha" operator="out"/>
<feColorMatrix type="matrix" values="0 0 0 0 0.711701 0 0 0 0 0.797237 0 0 0 0 0.858333 0 0 0 1 0"/>
<feBlend mode="normal" in2="BackgroundImageFix" result="effect1_dropShadow_739_6229"/>
<feBlend mode="normal" in="SourceGraphic" in2="effect1_dropShadow_739_6229" result="shape"/>
</filter>
</defs>
</svg>
