<svg width="145" height="145" viewBox="0 0 145 145" fill="none" xmlns="http://www.w3.org/2000/svg">
<path d="M62.2617 0.5V1H68.0439V0.5H73.8262V1H79.6084V0.5H85.0938V1H90.2812V0.5H95.4688V1H100.656V0.5H105.844V1H111.031V0.5H116.219V1H121.406V0.5H124C124.907 0.5 125.8 0.558555 126.677 0.672852L126.612 1.16895L126.611 1.16992C128.375 1.3999 130.066 1.85913 131.654 2.51758H131.655L131.848 2.05566C133.514 2.74687 135.07 3.65152 136.48 4.73535L136.176 5.13184L136.175 5.13281C137.56 6.19731 138.802 7.43903 139.866 8.82422H139.868L140.265 8.51953C141.348 9.92993 142.253 11.4856 142.944 13.1523L142.482 13.3447H142.481C143.14 14.9329 143.599 16.6241 143.829 18.3877H143.831L144.327 18.3232C144.441 19.1995 144.5 20.093 144.5 21V23.5752H144V28.7246H144.5V33.875H144V39.0254H144.5V44.1748H144V49.3252H144.5V54.4746H144V59.625H144.5V64.7754H144V69.9248H144.5V75.0752H144V80.2246H144.5V85.375H144V90.5254H144.5V95.6748H144V100.825H144.5V105.975H144V111.125H144.5V116.275H144V121.425H144.5V124L144.489 124.678C144.467 125.353 144.413 126.02 144.327 126.677L143.831 126.612L143.829 126.611C143.599 128.375 143.14 130.066 142.481 131.654L142.482 131.655L142.944 131.848C142.253 133.514 141.348 135.07 140.265 136.48L139.868 136.176L139.866 136.175C138.802 137.56 137.56 138.802 136.175 139.866L136.176 139.868L136.48 140.265C135.07 141.348 133.514 142.253 131.848 142.944L131.655 142.482L131.654 142.481C130.066 143.14 128.375 143.599 126.611 143.829L126.612 143.831L126.677 144.327C125.8 144.441 124.907 144.5 124 144.5H121.425V144H116.275V144.5H111.125V144H105.975V144.5H100.825V144H95.6748V144.5H90.5254V144H85.375V144.5H80.2246V144H75.0752V144.5H69.9248V144H64.7754V144.5H59.625V144H54.4746V144.5H49.3252V144H44.1748V144.5H39.0254V144H33.875V144.5H28.7246V144H23.5752V144.5H21C20.093 144.5 19.1995 144.441 18.3232 144.327L18.3877 143.831V143.829C16.6241 143.599 14.9329 143.14 13.3447 142.481V142.482L13.1523 142.944C11.4856 142.253 9.92993 141.348 8.51953 140.265L8.82422 139.868V139.866C7.43903 138.802 6.19731 137.56 5.13281 136.175L5.13184 136.176L4.73535 136.48C3.65152 135.07 2.74687 133.514 2.05566 131.848L2.51758 131.655V131.654C1.85913 130.066 1.3999 128.375 1.16992 126.611L1.16895 126.612L0.672852 126.677C0.558555 125.8 0.5 124.907 0.5 124V121.425H1V116.275H0.5V111.125H1V105.975H0.5V100.825H1V95.6748H0.5V90.5254H1V85.375H0.5V80.2246H1V75.0752H0.5V70.623H1V66.8691H0.5V63.1162H1V59.3623H0.5V57.4854C0.500002 56.6748 0.547233 55.8737 0.639648 55.085L1.13672 55.1426C1.32163 53.5649 1.69123 52.0387 2.22461 50.5879H2.22363L1.75488 50.416C2.31214 48.9001 3.04369 47.4644 3.92773 46.1357L4.34473 46.4121H4.3457C5.21304 45.1088 6.23031 43.9107 7.37598 42.8438V42.8428L7.03516 42.4766C8.20314 41.3889 9.50149 40.4341 10.9072 39.6387L11.1533 40.0742C12.4986 39.313 13.9449 38.7016 15.4717 38.2637L15.334 37.7832C16.0974 37.5642 16.8807 37.3871 17.6807 37.2559L18.9092 37.0547L18.9893 37.5469L21.4482 37.1436L21.3682 36.6504L22.5967 36.4492C23.602 36.2842 24.581 36.0431 25.5273 35.7324L25.6826 36.207C27.6711 35.5543 29.5195 34.6006 31.1758 33.3994L30.8838 32.9951C32.5161 31.8112 33.9566 30.3803 35.1514 28.7559L35.5527 29.0508C36.7651 27.4024 37.7315 25.5605 38.3975 23.5762L37.9238 23.418C38.2408 22.4738 38.4885 21.4964 38.6602 20.4922L38.7861 19.7559L39.2793 19.8398L39.5312 18.3662L39.0381 18.2822L39.1641 17.5449C39.3 16.75 39.4806 15.9721 39.7031 15.2139L40.1836 15.3545C40.6287 13.8377 41.2453 12.4017 42.0098 11.0664H42.0088L41.5752 10.8184C42.3738 9.42329 43.3299 8.13487 44.417 6.97656L44.7812 7.31934H44.7822C45.8488 6.18292 47.0448 5.17422 48.3447 4.31445V4.31348L48.0684 3.89648C49.3932 3.02024 50.8234 2.29526 52.333 1.74316L52.5049 2.21289C53.9498 1.68445 55.4691 1.3189 57.0391 1.13574V1.13477L56.9814 0.638672C57.7667 0.547082 58.5643 0.5 59.3711 0.5H62.2617Z" stroke="#9BB8CD" stroke-dasharray="5 5"/>
</svg>
