<svg width="206" height="50" viewBox="0 0 206 50" fill="none" xmlns="http://www.w3.org/2000/svg">
<path d="M6.62405 47.265C10.028 47.265 12.742 46.759 14.766 45.747C16.836 44.781 18.308 43.355 19.182 41.469C20.056 39.583 20.493 37.214 20.493 34.362V20.838C20.493 17.02 19.688 14.076 18.078 12.006C16.468 9.88999 14.168 8.83199 11.178 8.83199C8.41805 8.83199 6.21005 9.93599 4.55405 12.144C2.89805 14.306 2.07005 17.204 2.07005 20.838C2.07005 23.92 2.87505 26.197 4.48505 27.669C6.14105 29.095 8.39505 29.808 11.247 29.808H20.8381H21.5281H26.496L26.703 30.843L26.496 31.878H11.247C7.93505 31.878 5.22105 30.958 3.10505 29.118C1.03505 27.232 4.88795e-05 24.472 4.88795e-05 20.838C4.88795e-05 18.17 0.460049 15.778 1.38005 13.662C2.34605 11.5 3.68005 9.82099 5.38205 8.62499C7.08405 7.38299 9.01605 6.76199 11.178 6.76199C13.4781 6.76199 15.4791 7.35999 17.1811 8.55599C18.929 9.70599 20.263 11.339 21.1831 13.455C22.103 15.571 22.563 18.032 22.563 20.838V34.362C22.563 37.49 22.034 40.158 20.976 42.366C19.9181 44.574 18.2161 46.276 15.87 47.472C13.524 48.714 10.442 49.335 6.62405 49.335H0.828049V47.265H6.62405ZM43.7277 11.592V22.839C43.7277 25.415 44.5327 27.232 46.1427 28.29C47.7527 29.302 49.4087 29.808 51.1107 29.808H54.5607L54.7677 30.843L54.5607 31.878H51.1107C49.9607 31.878 48.6497 31.625 47.1777 31.119C45.7517 30.613 44.4637 29.693 43.3137 28.359C42.2097 27.025 41.6577 25.185 41.6577 22.839V11.592H43.7277ZM43.7277 22.839C43.7277 24.863 43.2447 26.565 42.2787 27.945C41.3127 29.279 40.0017 30.268 38.3457 30.912C36.7357 31.556 34.8727 31.878 32.7567 31.878H25.7187V29.808H32.7567C35.5627 29.808 37.7477 29.256 39.3117 28.152C40.8757 27.048 41.6577 25.277 41.6577 22.839H43.7277ZM29.3067 -1.01328e-05C29.9967 -1.01328e-05 30.5027 -1.01328e-05 30.8247 -1.01328e-05C31.1927 -1.01328e-05 31.7217 -1.01328e-05 32.4117 -1.01328e-05C32.9177 -1.01328e-05 33.4237 -1.01328e-05 33.9297 -1.01328e-05C33.9297 0.689989 33.9297 1.21899 33.9297 1.58699C33.9297 1.90899 33.9297 2.41499 33.9297 3.10499C33.9297 3.61099 33.9297 4.11699 33.9297 4.62299C32.8717 4.62299 32.0897 4.62299 31.5837 4.62299C31.0777 4.62299 30.3187 4.62299 29.3067 4.62299C29.3067 3.56499 29.3067 2.78299 29.3067 2.27699C29.3067 1.77099 29.3067 1.01199 29.3067 -1.01328e-05ZM38.8977 -1.01328e-05C39.9557 -1.01328e-05 40.7377 -1.01328e-05 41.2437 -1.01328e-05C41.7497 -1.01328e-05 42.5087 -1.01328e-05 43.5207 -1.01328e-05C43.5207 1.05799 43.5207 1.83999 43.5207 2.34599C43.5207 2.85199 43.5207 3.61099 43.5207 4.62299C42.4627 4.62299 41.6807 4.62299 41.1747 4.62299C40.6687 4.62299 39.9097 4.62299 38.8977 4.62299C38.8977 4.11699 38.8977 3.61099 38.8977 3.10499C38.8977 2.41499 38.8977 1.90899 38.8977 1.58699C38.8977 1.21899 38.8977 0.689989 38.8977 -1.01328e-05ZM71.8937 11.592V22.839C71.8937 25.415 72.6987 27.232 74.3087 28.29C75.9187 29.302 77.5747 29.808 79.2767 29.808H82.7267L82.9337 30.843L82.7267 31.878H79.2767C78.1267 31.878 76.8157 31.625 75.3437 31.119C73.9177 30.613 72.6297 29.693 71.4797 28.359C70.3757 27.025 69.8237 25.185 69.8237 22.839V11.592H71.8937ZM71.8937 22.839C71.8937 24.863 71.4107 26.565 70.4447 27.945C69.4787 29.279 68.1677 30.268 66.5117 30.912C64.9017 31.556 63.0387 31.878 60.9227 31.878H53.8847V29.808H60.9227C63.7287 29.808 65.9137 29.256 67.4777 28.152C69.0417 27.048 69.8237 25.277 69.8237 22.839H71.8937ZM52.0217 40.572C52.7117 40.572 53.2407 40.572 53.6087 40.572C53.9307 40.572 54.4367 40.572 55.1267 40.572C55.6327 40.572 56.1387 40.572 56.6447 40.572C56.6447 41.262 56.6447 41.768 56.6447 42.09C56.6447 42.458 56.6447 42.987 56.6447 43.677C56.6447 44.183 56.6447 44.689 56.6447 45.195C55.5867 45.195 54.8047 45.195 54.2987 45.195C53.7927 45.195 53.0337 45.195 52.0217 45.195C52.0217 44.137 52.0217 43.355 52.0217 42.849C52.0217 42.343 52.0217 41.584 52.0217 40.572ZM61.6127 40.572C62.6707 40.572 63.4527 40.572 63.9587 40.572C64.4647 40.572 65.2237 40.572 66.2357 40.572C66.2357 41.63 66.2357 42.412 66.2357 42.918C66.2357 43.424 66.2357 44.183 66.2357 45.195C65.1777 45.195 64.3957 45.195 63.8897 45.195C63.3837 45.195 62.6247 45.195 61.6127 45.195C61.6127 44.689 61.6127 44.183 61.6127 43.677C61.6127 42.987 61.6127 42.458 61.6127 42.09C61.6127 41.768 61.6127 41.262 61.6127 40.572ZM82.0508 29.808H83.9828C85.3168 29.808 86.4898 29.417 87.5018 28.635C88.5598 27.807 89.2728 26.726 89.6408 25.392L91.8488 17.457C92.7228 14.375 94.0568 11.937 95.8508 10.143C97.6908 8.34899 99.9218 7.45199 102.544 7.45199C104.66 7.45199 106.5 8.07299 108.064 9.31499C109.674 10.511 110.893 12.144 111.721 14.214C112.595 16.238 113.032 18.446 113.032 20.838C113.032 23.782 112.618 26.197 111.79 28.083C111.008 29.969 109.973 31.326 108.685 32.154C107.443 32.982 106.086 33.396 104.614 33.396C103.004 33.396 101.371 33.051 99.7148 32.361C98.0588 31.717 95.2528 30.406 91.2968 28.428L89.4338 27.462L90.3998 25.668C90.9058 25.898 91.3888 26.151 91.8488 26.427C95.7588 28.405 98.4958 29.716 100.06 30.36C101.67 31.004 103.188 31.326 104.614 31.326C106.454 31.326 107.972 30.521 109.168 28.911C110.364 27.301 110.962 24.61 110.962 20.838C110.962 17.526 110.203 14.812 108.685 12.696C107.167 10.58 105.12 9.52199 102.544 9.52199C100.382 9.52199 98.5648 10.258 97.0928 11.73C95.6668 13.156 94.5628 15.249 93.7808 18.009L91.5728 25.944C91.2508 27.094 90.6988 28.129 89.9168 29.049C89.1808 29.923 88.2838 30.613 87.2258 31.119C86.2138 31.625 85.1328 31.878 83.9828 31.878H82.0508V29.808ZM119.932 30.912L119.794 31.878H119.104C117.218 31.878 115.677 31.51 114.481 30.774C113.331 29.992 112.48 28.796 111.928 27.186C111.376 25.53 111.1 23.414 111.1 20.838H113.032C113.032 23.184 113.216 25.001 113.584 26.289C113.998 27.577 114.642 28.497 115.516 29.049C116.39 29.555 117.586 29.808 119.104 29.808H119.794L119.932 30.912ZM119.111 29.808H131.186H132.566C134.728 29.67 136.591 29.279 138.155 28.635C139.765 27.991 141.053 27.025 142.019 25.737C143.031 24.449 143.698 22.816 144.02 20.838C144.388 18.446 144.204 16.353 143.468 14.559C142.732 12.719 141.605 11.316 140.087 10.35C138.569 9.33799 136.844 8.83199 134.912 8.83199C131.784 8.83199 129.415 9.86699 127.805 11.937C126.241 13.961 125.459 16.974 125.459 20.976V34.362C125.459 37.352 125.919 39.79 126.839 41.676C127.759 43.562 129.392 44.988 131.738 45.954C134.084 46.92 137.35 47.403 141.536 47.403V40.641C141.536 38.663 141.95 36.846 142.778 35.19C143.606 33.534 144.756 32.223 146.228 31.257C147.746 30.291 149.471 29.808 151.403 29.808H155.543L155.681 30.912L155.543 31.878H151.403C149.011 31.878 147.102 32.683 145.676 34.293C144.296 35.949 143.606 38.065 143.606 40.641V47.61L141.605 49.473C136.959 49.473 133.302 48.875 130.634 47.679C127.966 46.483 126.08 44.781 124.976 42.573C123.918 40.365 123.389 37.628 123.389 34.362V20.976C123.389 18.032 123.826 15.502 124.7 13.386C125.62 11.224 126.931 9.59099 128.633 8.48699C130.381 7.33699 132.474 6.76199 134.912 6.76199C137.166 6.76199 139.213 7.38299 141.053 8.62499C142.939 9.82099 144.342 11.523 145.262 13.731C146.228 15.939 146.504 18.4 146.09 21.114C145.492 24.794 143.859 27.508 141.191 29.256C138.569 31.004 135.234 31.878 131.186 31.878H119.111V29.808ZM154.824 29.808H159.723C162.529 29.808 164.714 29.256 166.278 28.152C167.842 27.048 168.624 25.277 168.624 22.839V11.178H170.694V22.839C170.694 25.369 171.476 27.163 173.04 28.221C174.604 29.279 176.214 29.808 177.87 29.808C180.584 29.808 182.677 29.256 184.149 28.152C185.667 27.048 186.426 25.277 186.426 22.839V11.178H188.496V22.839C188.496 25.369 189.278 27.163 190.842 28.221C192.406 29.279 194.039 29.808 195.741 29.808C198.593 29.808 200.571 29.095 201.675 27.669C202.825 26.197 203.4 24.449 203.4 22.425C203.4 21.091 203.193 19.32 202.779 17.112C202.365 14.858 201.836 12.328 201.192 9.52199L203.262 9.10799C203.86 11.822 204.366 14.352 204.78 16.698C205.24 19.044 205.47 20.953 205.47 22.425C205.47 23.943 205.171 25.415 204.573 26.841C204.021 28.267 203.009 29.463 201.537 30.429C200.111 31.395 198.179 31.878 195.741 31.878C194.223 31.878 192.659 31.51 191.049 30.774C189.485 29.992 188.289 28.842 187.461 27.324C186.633 28.796 185.368 29.923 183.666 30.705C182.01 31.487 180.078 31.878 177.87 31.878C176.536 31.878 175.018 31.51 173.316 30.774C171.66 29.992 170.441 28.842 169.659 27.324C168.785 28.842 167.474 29.992 165.726 30.774C164.024 31.51 162.023 31.878 159.723 31.878H154.824V29.808Z" fill="#FB6A02"/>
</svg>
