<svg width="90" height="22" viewBox="0 0 90 22" fill="none" xmlns="http://www.w3.org/2000/svg">
<path d="M2.88 20.55C4.36 20.55 5.54 20.33 6.42 19.89C7.32 19.47 7.96 18.85 8.34 18.03C8.72 17.21 8.91 16.18 8.91 14.94V9.05999C8.91 7.39998 8.56 6.11998 7.86 5.21998C7.16 4.29998 6.16 3.83998 4.86 3.83998C3.66 3.83998 2.7 4.31998 1.98 5.27998C1.26 6.21999 0.9 7.47999 0.9 9.05999C0.9 10.4 1.25 11.39 1.95 12.03C2.67 12.65 3.65 12.96 4.89 12.96H9.06H9.36H11.52L11.61 13.41L11.52 13.86H4.89C3.45 13.86 2.27 13.46 1.35 12.66C0.45 11.84 2.23517e-08 10.64 2.23517e-08 9.05999C2.23517e-08 7.89999 0.2 6.85999 0.6 5.93999C1.02 4.99998 1.6 4.26998 2.34 3.74998C3.08 3.20998 3.92 2.93998 4.86 2.93998C5.86 2.93998 6.73 3.19998 7.47 3.71998C8.23 4.21998 8.81 4.92998 9.21 5.84998C9.61 6.76998 9.81 7.83998 9.81 9.05999V14.94C9.81 16.3 9.58 17.46 9.12 18.42C8.66 19.38 7.92 20.12 6.9 20.64C5.88 21.18 4.54 21.45 2.88 21.45H0.36V20.55H2.88ZM19.012 5.03999V9.92998C19.012 11.05 19.362 11.84 20.062 12.3C20.762 12.74 21.482 12.96 22.222 12.96H23.722L23.812 13.41L23.722 13.86H22.222C21.722 13.86 21.152 13.75 20.512 13.53C19.892 13.31 19.332 12.91 18.832 12.33C18.352 11.75 18.112 10.95 18.112 9.92998V5.03999H19.012ZM19.012 9.92998C19.012 10.81 18.802 11.55 18.382 12.15C17.962 12.73 17.392 13.16 16.672 13.44C15.972 13.72 15.162 13.86 14.242 13.86H11.182V12.96H14.242C15.462 12.96 16.412 12.72 17.092 12.24C17.772 11.76 18.112 10.99 18.112 9.92998H19.012ZM12.742 -1.50204e-05C13.042 -1.50204e-05 13.262 -1.50204e-05 13.402 -1.50204e-05C13.562 -1.50204e-05 13.792 -1.50204e-05 14.092 -1.50204e-05C14.312 -1.50204e-05 14.532 -1.50204e-05 14.752 -1.50204e-05C14.752 0.299985 14.752 0.529985 14.752 0.689985C14.752 0.829985 14.752 1.04998 14.752 1.34998C14.752 1.56998 14.752 1.78998 14.752 2.00999C14.292 2.00999 13.952 2.00999 13.732 2.00999C13.512 2.00999 13.182 2.00999 12.742 2.00999C12.742 1.54998 12.742 1.20998 12.742 0.989985C12.742 0.769985 12.742 0.439985 12.742 -1.50204e-05ZM16.912 -1.50204e-05C17.372 -1.50204e-05 17.712 -1.50204e-05 17.932 -1.50204e-05C18.152 -1.50204e-05 18.482 -1.50204e-05 18.922 -1.50204e-05C18.922 0.459985 18.922 0.799985 18.922 1.01998C18.922 1.23998 18.922 1.56998 18.922 2.00999C18.462 2.00999 18.122 2.00999 17.902 2.00999C17.682 2.00999 17.352 2.00999 16.912 2.00999C16.912 1.78998 16.912 1.56998 16.912 1.34998C16.912 1.04998 16.912 0.829985 16.912 0.689985C16.912 0.529985 16.912 0.299985 16.912 -1.50204e-05ZM31.2581 5.03999V9.92998C31.2581 11.05 31.6081 11.84 32.3081 12.3C33.0081 12.74 33.7281 12.96 34.4681 12.96H35.9681L36.0581 13.41L35.9681 13.86H34.4681C33.9681 13.86 33.3981 13.75 32.7581 13.53C32.1381 13.31 31.5781 12.91 31.0781 12.33C30.5981 11.75 30.3581 10.95 30.3581 9.92998V5.03999H31.2581ZM31.2581 9.92998C31.2581 10.81 31.0481 11.55 30.6281 12.15C30.2081 12.73 29.6381 13.16 28.9181 13.44C28.2181 13.72 27.4081 13.86 26.4881 13.86H23.4281V12.96H26.4881C27.7081 12.96 28.6581 12.72 29.3381 12.24C30.0181 11.76 30.3581 10.99 30.3581 9.92998H31.2581ZM22.6181 17.64C22.9181 17.64 23.1481 17.64 23.3081 17.64C23.4481 17.64 23.6681 17.64 23.9681 17.64C24.1881 17.64 24.4081 17.64 24.6281 17.64C24.6281 17.94 24.6281 18.16 24.6281 18.3C24.6281 18.46 24.6281 18.69 24.6281 18.99C24.6281 19.21 24.6281 19.43 24.6281 19.65C24.1681 19.65 23.8281 19.65 23.6081 19.65C23.3881 19.65 23.0581 19.65 22.6181 19.65C22.6181 19.19 22.6181 18.85 22.6181 18.63C22.6181 18.41 22.6181 18.08 22.6181 17.64ZM26.7881 17.64C27.2481 17.64 27.5881 17.64 27.8081 17.64C28.0281 17.64 28.3581 17.64 28.7981 17.64C28.7981 18.1 28.7981 18.44 28.7981 18.66C28.7981 18.88 28.7981 19.21 28.7981 19.65C28.3381 19.65 27.9981 19.65 27.7781 19.65C27.5581 19.65 27.2281 19.65 26.7881 19.65C26.7881 19.43 26.7881 19.21 26.7881 18.99C26.7881 18.69 26.7881 18.46 26.7881 18.3C26.7881 18.16 26.7881 17.94 26.7881 17.64ZM35.6742 12.96H36.5142C37.0942 12.96 37.6042 12.79 38.0442 12.45C38.5042 12.09 38.8142 11.62 38.9742 11.04L39.9342 7.58999C40.3142 6.24998 40.8942 5.18998 41.6742 4.40998C42.4742 3.62999 43.4442 3.23999 44.5842 3.23999C45.5042 3.23999 46.3042 3.50999 46.9842 4.04998C47.6842 4.56998 48.2142 5.27998 48.5742 6.17998C48.9542 7.05998 49.1442 8.01998 49.1442 9.05999C49.1442 10.34 48.9642 11.39 48.6042 12.21C48.2642 13.03 47.8142 13.62 47.2542 13.98C46.7142 14.34 46.1242 14.52 45.4842 14.52C44.7842 14.52 44.0742 14.37 43.3542 14.07C42.6342 13.79 41.4142 13.22 39.6942 12.36L38.8842 11.94L39.3042 11.16C39.5242 11.26 39.7342 11.37 39.9342 11.49C41.6342 12.35 42.8242 12.92 43.5042 13.2C44.2042 13.48 44.8642 13.62 45.4842 13.62C46.2842 13.62 46.9442 13.27 47.4642 12.57C47.9842 11.87 48.2442 10.7 48.2442 9.05999C48.2442 7.61999 47.9142 6.43998 47.2542 5.51998C46.5942 4.59999 45.7042 4.13999 44.5842 4.13999C43.6442 4.13999 42.8542 4.45999 42.2142 5.09998C41.5942 5.71998 41.1142 6.62999 40.7742 7.82999L39.8142 11.28C39.6742 11.78 39.4342 12.23 39.0942 12.63C38.7742 13.01 38.3842 13.31 37.9242 13.53C37.4842 13.75 37.0142 13.86 36.5142 13.86H35.6742V12.96ZM52.1442 13.44L52.0842 13.86H51.7842C50.9642 13.86 50.2942 13.7 49.7742 13.38C49.2742 13.04 48.9042 12.52 48.6642 11.82C48.4242 11.1 48.3042 10.18 48.3042 9.05999H49.1442C49.1442 10.08 49.2242 10.87 49.3842 11.43C49.5642 11.99 49.8442 12.39 50.2242 12.63C50.6042 12.85 51.1242 12.96 51.7842 12.96H52.0842L52.1442 13.44ZM51.7875 12.96H57.0375H57.6375C58.5775 12.9 59.3875 12.73 60.0675 12.45C60.7675 12.17 61.3275 11.75 61.7475 11.19C62.1875 10.63 62.4775 9.91999 62.6175 9.05999C62.7775 8.01998 62.6975 7.10998 62.3775 6.32998C62.0575 5.52999 61.5675 4.91999 60.9075 4.49999C60.2475 4.05998 59.4975 3.83998 58.6575 3.83998C57.2975 3.83998 56.2675 4.28998 55.5675 5.18999C54.8875 6.06999 54.5475 7.37999 54.5475 9.11999V14.94C54.5475 16.24 54.7475 17.3 55.1475 18.12C55.5475 18.94 56.2575 19.56 57.2775 19.98C58.2975 20.4 59.7175 20.61 61.5375 20.61V17.67C61.5375 16.81 61.7175 16.02 62.0775 15.3C62.4375 14.58 62.9375 14.01 63.5775 13.59C64.2375 13.17 64.9875 12.96 65.8275 12.96H67.6275L67.6875 13.44L67.6275 13.86H65.8275C64.7875 13.86 63.9575 14.21 63.3375 14.91C62.7375 15.63 62.4375 16.55 62.4375 17.67V20.7L61.5675 21.51C59.5475 21.51 57.9575 21.25 56.7975 20.73C55.6375 20.21 54.8175 19.47 54.3375 18.51C53.8775 17.55 53.6475 16.36 53.6475 14.94V9.11999C53.6475 7.83998 53.8375 6.73998 54.2175 5.81999C54.6175 4.87998 55.1875 4.16998 55.9275 3.68998C56.6875 3.18998 57.5975 2.93998 58.6575 2.93998C59.6375 2.93998 60.5275 3.20998 61.3275 3.74998C62.1475 4.26998 62.7575 5.00998 63.1575 5.96999C63.5775 6.92999 63.6975 7.99999 63.5175 9.17999C63.2575 10.78 62.5475 11.96 61.3875 12.72C60.2475 13.48 58.7975 13.86 57.0375 13.86H51.7875V12.96ZM67.3148 12.96H69.4448C70.6648 12.96 71.6148 12.72 72.2948 12.24C72.9748 11.76 73.3148 10.99 73.3148 9.92998V4.85998H74.2148V9.92998C74.2148 11.03 74.5548 11.81 75.2348 12.27C75.9148 12.73 76.6148 12.96 77.3348 12.96C78.5148 12.96 79.4248 12.72 80.0648 12.24C80.7248 11.76 81.0548 10.99 81.0548 9.92998V4.85998H81.9548V9.92998C81.9548 11.03 82.2948 11.81 82.9748 12.27C83.6548 12.73 84.3648 12.96 85.1048 12.96C86.3448 12.96 87.2048 12.65 87.6848 12.03C88.1848 11.39 88.4348 10.63 88.4348 9.74999C88.4348 9.16999 88.3448 8.39999 88.1648 7.43998C87.9848 6.45998 87.7548 5.35999 87.4748 4.13999L88.3748 3.95998C88.6348 5.13998 88.8548 6.23998 89.0348 7.25998C89.2348 8.27998 89.3348 9.10998 89.3348 9.74999C89.3348 10.41 89.2048 11.05 88.9448 11.67C88.7048 12.29 88.2648 12.81 87.6248 13.23C87.0048 13.65 86.1648 13.86 85.1048 13.86C84.4448 13.86 83.7648 13.7 83.0648 13.38C82.3848 13.04 81.8648 12.54 81.5048 11.88C81.1448 12.52 80.5948 13.01 79.8548 13.35C79.1348 13.69 78.2948 13.86 77.3348 13.86C76.7548 13.86 76.0948 13.7 75.3548 13.38C74.6348 13.04 74.1048 12.54 73.7648 11.88C73.3848 12.54 72.8148 13.04 72.0548 13.38C71.3148 13.7 70.4448 13.86 69.4448 13.86H67.3148V12.96Z" fill="#9AA3C0"/>
</svg>
