<svg width="440" height="140" viewBox="0 0 440 140" fill="none" xmlns="http://www.w3.org/2000/svg">
<path d="M0 25.2C0 1.6778 0 -10.0833 4.57773 -19.0676C8.60441 -26.9704 15.0296 -33.3956 22.9324 -37.4223C31.9167 -42 43.6778 -42 67.2 -42H372.8C396.322 -42 408.083 -42 417.068 -37.4223C424.97 -33.3956 431.396 -26.9704 435.422 -19.0676C440 -10.0833 440 1.6778 440 25.2V72.8C440 96.3222 440 108.083 435.422 117.068C431.396 124.97 424.97 131.396 417.068 135.422C408.083 140 396.322 140 372.799 140C354.058 140 336.921 140 330 140C320.642 140 306.038 128.223 293.89 116.585C283.954 107.065 278.986 102.305 274.827 99.8414C270.635 97.3583 267.708 96.1823 262.963 95.0754C258.255 93.977 252.624 93.977 241.362 93.977H217.5H194.161C182.687 93.977 176.95 93.977 172.079 95.1563C167.274 96.3197 164.061 97.6624 159.857 100.265C155.596 102.902 150.814 107.746 141.25 117.433C130.038 128.789 117.157 140 110 140C104.408 140 86.7699 140 67.2081 140C43.6805 140 31.9167 140 22.9324 135.422C15.0296 131.396 8.60441 124.97 4.57773 117.068C0 108.083 0 96.3222 0 72.8V25.2Z" fill="#F3F3F3"/>
</svg>
