<svg width="137" height="133" viewBox="0 0 137 133" fill="none" xmlns="http://www.w3.org/2000/svg">
<path d="M56.1393 18.2805C59.9104 8.48809 70.9058 3.60689 80.6982 7.37799L99.8286 14.7452L102.864 15.9142C108.286 18.0021 112.454 22.4557 114.179 28.0035L117.203 37.728L122.615 52.0678C124.263 56.4328 124.247 61.2515 122.57 65.6054L119.799 72.8007L109.736 98.9301C105.965 108.722 94.9699 113.604 85.1775 109.833L46.9166 95.098C37.1243 91.3269 32.2431 80.3316 36.0142 70.5392L56.1393 18.2805Z" fill="#DEDEDE"/>
<path d="M3.53842 35.8004C1.5842 25.4906 8.35777 15.5486 18.6676 13.5944L45.1953 8.56611L50.377 7.58393C56.1005 6.49904 62.0054 8.09975 66.3974 11.9268L76.51 20.7385L91.6605 32.433C95.3413 35.2742 97.8525 39.3666 98.7185 43.9351L100.633 54.0372L107.338 89.4074C109.292 99.7173 102.518 109.659 92.2085 111.613L39.1532 121.67C28.8434 123.624 18.9014 116.851 16.9472 106.541L3.53842 35.8004Z" fill="#E9EAED"/>
<circle cx="63.938" cy="117.104" r="14" fill="#FB6A02" stroke="white" stroke-width="3"/>
<path d="M63.438 116.144L65.369 114.604M65.369 114.604L67.3001 116.144M65.369 114.604L65.369 119.004" stroke="white" stroke-linecap="round" stroke-linejoin="round"/>
<path d="M60.6536 115.124C60.6536 115.124 60.4613 115.654 60.4617 116.004C60.462 116.355 60.5073 116.561 60.6553 116.884" stroke="white" stroke-linecap="round" stroke-linejoin="round"/>
<path d="M65.1279 111.545C68.0092 111.545 70.4551 113.706 70.4551 116.441C70.4548 119.147 68.0139 121.371 65.1284 121.344C65.1282 121.344 65.1279 121.344 65.1279 121.344C65.1279 121.345 65.1277 121.345 65.1274 121.345H60.2998C58.316 121.345 56.421 119.958 56.4209 117.979C56.4211 116.052 58.1385 114.476 60.1797 114.476C60.2797 114.476 60.3718 114.421 60.4172 114.332C61.2599 112.68 63.0314 111.545 65.1279 111.545ZM65.1279 112.545C63.2291 112.545 61.7018 113.667 61.1338 115.184C61.0519 115.402 60.8297 115.535 60.5986 115.504C60.4621 115.486 60.3222 115.476 60.1797 115.476C58.6217 115.476 57.4211 116.67 57.4209 117.979C57.421 119.238 58.6848 120.345 60.2998 120.345H65.1328C67.5359 120.37 69.4548 118.524 69.4551 116.441C69.4551 114.345 67.5474 112.545 65.1279 112.545Z" fill="white"/>
<rect x="27.7607" y="45.459" width="42" height="8" rx="4" transform="rotate(-10.733 27.7607 45.459)" fill="white"/>
<rect x="31.6716" y="66.0918" width="47" height="8" rx="4" transform="rotate(-10.733 31.6716 66.0918)" fill="white"/>
<rect x="35.5825" y="86.7236" width="47" height="8" rx="4" transform="rotate(-10.733 35.5825 86.7236)" fill="white"/>
</svg>
